0
SECTION
2
HEADER
9
$INSUNITS
70
4
0
ENDSEC
0
SECTION
2
TABLES
0
TABLE
2
LAYER
0
ENDTAB
0
ENDSEC
0
SECTION
2
ENTITIES
0
POLYLINE
5
73
8
OUTLINE
62
1
66
1
10
0.0
20
0.0
30
0.0
70
1
0
VERTEX
8
OUTLINE
62
0
10
6.4589
20
-3.4278
30
0.0
0
VERTEX
8
OUTLINE
62
0
10
6.3914
20
-3.1355
30
0.0
0
VERTEX
8
OUTLINE
62
0
10
6.3894
20
-3.1359
30
0.0
0
VERTEX
8
OUTLINE
62
0
10
2.9585
20
11.7252
30
0.0
0
VERTEX
8
OUTLINE
62
0
10
2.6662
20
11.6577
30
0.0
0
VERTEX
8
OUTLINE
62
0
10
2.6666
20
11.6557
30
0.0
0
VERTEX
8
OUTLINE
62
0
10
-2.1585
20
10.5418
30
0.0
0
VERTEX
8
OUTLINE
62
0
10
-2.091
20
10.2495
30
0.0
0
VERTEX
8
OUTLINE
62
0
10
-2.089
20
10.2499
30
0.0
0
VERTEX
8
OUTLINE
62
0
10
-1.1393
20
6.1363
30
0.0
0
VERTEX
8
OUTLINE
62
0
10
-1.2485
20
6.0309
30
0.0
0
VERTEX
8
OUTLINE
62
0
10
-3.6064
20
5.4865
30
0.0
0
VERTEX
8
OUTLINE
62
0
10
-4.6191
20
9.8731
30
0.0
0
VERTEX
8
OUTLINE
62
0
10
-4.7653
20
9.8394
30
0.0
0
VERTEX
8
OUTLINE
62
0
10
-4.7648
20
9.8374
30
0.0
0
VERTEX
8
OUTLINE
62
0
10
-9.1514
20
8.8247
30
0.0
0
VERTEX
8
OUTLINE
62
0
10
-9.0952
20
8.5811
30
0.0
0
VERTEX
8
OUTLINE
62
0
10
-9.0933
20
8.5815
30
0.0
0
VERTEX
8
OUTLINE
62
0
10
-7.879
20
3.3219
30
0.0
0
VERTEX
8
OUTLINE
62
0
10
-7.9277
20
3.3106
30
0.0
0
VERTEX
8
OUTLINE
62
0
10
-6.6792
20
-2.0971
30
0.0
0
VERTEX
8
OUTLINE
62
0
10
-6.8741
20
-2.1421
30
0.0
0
VERTEX
8
OUTLINE
62
0
10
-6.7832
20
-2.5357
30
0.0
0
VERTEX
8
OUTLINE
62
0
10
-6.4422
20
-2.457
30
0.0
0
VERTEX
8
OUTLINE
62
0
10
-6.5322
20
-2.0673
30
0.0
0
VERTEX
8
OUTLINE
62
0
10
-6.386
20
-2.0335
30
0.0
0
VERTEX
8
OUTLINE
62
0
10
-6.3864
20
-2.0316
30
0.0
0
VERTEX
8
OUTLINE
62
0
10
-5.3634
20
-1.7954
30
0.0
0
VERTEX
8
OUTLINE
62
0
10
-4.4069
20
-5.9384
30
0.0
0
VERTEX
8
OUTLINE
62
0
10
-4.212
20
-5.8934
30
0.0
0
VERTEX
8
OUTLINE
62
0
10
-4.2124
20
-5.8915
30
0.0
0
SEQEND
8
OUTLINE
0
POLYLINE
5
73
8
WALL
62
0
66
1
10
0.0
20
0.0
30
0.0
70
1
0
VERTEX
8
WALL
62
0
10
3.1441
20
-4.1931
30
0.0
0
VERTEX
8
WALL
62
0
10
3.0766
20
-3.9008
30
0.0
0
VERTEX
8
WALL
62
0
10
3.0278
20
-3.912
30
0.0
0
VERTEX
8
WALL
62
0
10
2.9716
20
-3.6684
30
0.0
0
VERTEX
8
WALL
62
0
10
0.3895
20
-4.2645
30
0.0
0
VERTEX
8
WALL
62
0
10
0.2433
20
-3.6312
30
0.0
0
VERTEX
8
WALL
62
0
10
-0.049
20
-3.6987
30
0.0
0
VERTEX
8
WALL
62
0
10
-0.8138
20
-0.3858
30
0.0
0
VERTEX
8
WALL
62
0
10
-0.7164
20
-0.3633
30
0.0
0
VERTEX
8
WALL
62
0
10
-0.7501
20
-0.2172
30
0.0
0
VERTEX
8
WALL
62
0
10
-0.9937
20
-0.2734
30
0.0
0
VERTEX
8
WALL
62
0
10
-0.96
20
-0.4196
30
0.0
0
VERTEX
8
WALL
62
0
10
-0.9113
20
-0.4083
30
0.0
0
VERTEX
8
WALL
62
0
10
-0.0002
20
-4.3545
30
0.0
0
VERTEX
8
WALL
62
0
10
-1.072
20
-4.602
30
0.0
0
VERTEX
8
WALL
62
0
10
-1.0158
20
-4.8456
30
0.0
0
VERTEX
8
WALL
62
0
10
-1.0645
20
-4.8568
30
0.0
0
VERTEX
8
WALL
62
0
10
-0.997
20
-5.1491
30
0.0
0
SEQEND
8
WALL
0
POLYLINE
5
73
8
WALL
62
0
66
1
10
0.0
20
0.0
30
0.0
70
1
0
VERTEX
8
WALL
62
0
10
-7.2301
20
2.9565
30
0.0
0
VERTEX
8
WALL
62
0
10
-7.2189
20
2.9078
30
0.0
0
VERTEX
8
WALL
62
0
10
-7.365
20
2.874
30
0.0
0
VERTEX
8
WALL
62
0
10
-7.1626
20
1.9971
30
0.0
0
VERTEX
8
WALL
62
0
10
-7.3087
20
1.9633
30
0.0
0
VERTEX
8
WALL
62
0
10
-7.275
20
1.8172
30
0.0
0
VERTEX
8
WALL
62
0
10
-7.5673
20
1.7497
30
0.0
0
VERTEX
8
WALL
62
0
10
-7.9272
20
3.3087
30
0.0
0
VERTEX
8
WALL
62
0
10
-7.8785
20
3.3199
30
0.0
0
VERTEX
8
WALL
62
0
10
-8.2384
20
4.8789
30
0.0
0
VERTEX
8
WALL
62
0
10
-7.9461
20
4.9464
30
0.0
0
VERTEX
8
WALL
62
0
10
-7.9236
20
4.849
30
0.0
0
VERTEX
8
WALL
62
0
10
-7.68
20
4.9052
30
0.0
0
VERTEX
8
WALL
62
0
10
-7.2976
20
3.2488
30
0.0
0
VERTEX
8
WALL
62
0
10
-5.9335
20
3.5637
30
0.0
0
VERTEX
8
WALL
62
0
10
-5.866
20
3.2714
30
0.0
0
SEQEND
8
WALL
0
POLYLINE
5
73
8
WALL
62
0
66
1
10
0.0
20
0.0
30
0.0
70
1
0
VERTEX
8
WALL
62
0
10
-5.0523
20
-1.3644
30
0.0
0
VERTEX
8
WALL
62
0
10
-4.6699
20
-3.0208
30
0.0
0
VERTEX
8
WALL
62
0
10
-4.8648
20
-3.0658
30
0.0
0
VERTEX
8
WALL
62
0
10
-4.8311
20
-3.2119
30
0.0
0
VERTEX
8
WALL
62
0
10
-5.0259
20
-3.2569
30
0.0
0
VERTEX
8
WALL
62
0
10
-5.3634
20
-1.7954
30
0.0
0
VERTEX
8
WALL
62
0
10
-6.5326
20
-2.0653
30
0.0
0
VERTEX
8
WALL
62
0
10
-6.4426
20
-2.4551
30
0.0
0
VERTEX
8
WALL
62
0
10
-6.7837
20
-2.5338
30
0.0
0
VERTEX
8
WALL
62
0
10
-6.8736
20
-2.1441
30
0.0
0
VERTEX
8
WALL
62
0
10
-6.6788
20
-2.0991
30
0.0
0
VERTEX
8
WALL
62
0
10
-7.0049
20
-0.6862
30
0.0
0
VERTEX
8
WALL
62
0
10
-6.7126
20
-0.6187
30
0.0
0
VERTEX
8
WALL
62
0
10
-6.6789
20
-0.7649
30
0.0
0
VERTEX
8
WALL
62
0
10
-6.5327
20
-0.7312
30
0.0
0
VERTEX
8
WALL
62
0
10
-6.3528
20
-1.5106
30
0.0
0
VERTEX
8
WALL
62
0
10
-4.6963
20
-1.1282
30
0.0
0
VERTEX
8
WALL
62
0
10
-4.6626
20
-1.2744
30
0.0
0
SEQEND
8
WALL
0
POLYLINE
5
73
8
WALL
62
0
66
1
10
0.0
20
0.0
30
0.0
70
1
0
VERTEX
8
WALL
62
0
10
5.4223
20
-0.2803
30
0.0
0
VERTEX
8
WALL
62
0
10
5.411
20
-0.2316
30
0.0
0
VERTEX
8
WALL
62
0
10
5.3136
20
-0.2541
30
0.0
0
VERTEX
8
WALL
62
0
10
5.0324
20
0.9639
30
0.0
0
VERTEX
8
WALL
62
0
10
0.0631
20
-0.1834
30
0.0
0
VERTEX
8
WALL
62
0
10
0.0294
20
-0.0372
30
0.0
0
VERTEX
8
WALL
62
0
10
0.1268
20
-0.0147
30
0.0
0
VERTEX
8
WALL
62
0
10
-0.2669
20
1.6904
30
0.0
0
VERTEX
8
WALL
62
0
10
-0.1694
20
1.7129
30
0.0
0
VERTEX
8
WALL
62
0
10
0.2242
20
0.0078
30
0.0
0
VERTEX
8
WALL
62
0
10
4.9986
20
1.11
30
0.0
0
VERTEX
8
WALL
62
0
10
4.7062
20
2.3767
30
0.0
0
VERTEX
8
WALL
62
0
10
4.8036
20
2.3992
30
0.0
0
VERTEX
8
WALL
62
0
10
4.7924
20
2.4479
30
0.0
0
VERTEX
8
WALL
62
0
10
5.0847
20
2.5154
30
0.0
0
VERTEX
8
WALL
62
0
10
5.7146
20
-0.2128
30
0.0
0
SEQEND
8
WALL
0
POLYLINE
5
73
8
WALL
62
0
66
1
10
0.0
20
0.0
30
0.0
70
1
0
VERTEX
8
WALL
62
0
10
6.4569
20
-3.4282
30
0.0
0
VERTEX
8
WALL
62
0
10
6.007
20
-1.4795
30
0.0
0
VERTEX
8
WALL
62
0
10
5.7147
20
-1.547
30
0.0
0
VERTEX
8
WALL
62
0
10
5.7259
20
-1.5957
30
0.0
0
VERTEX
8
WALL
62
0
10
5.6772
20
-1.607
30
0.0
0
VERTEX
8
WALL
62
0
10
5.9922
20
-2.9711
30
0.0
0
VERTEX
8
WALL
62
0
10
4.1896
20
-3.3872
30
0.0
0
VERTEX
8
WALL
62
0
10
4.2458
20
-3.6308
30
0.0
0
VERTEX
8
WALL
62
0
10
4.1971
20
-3.6421
30
0.0
0
VERTEX
8
WALL
62
0
10
4.2646
20
-3.9344
30
0.0
0
SEQEND
8
WALL
0
POLYLINE
5
73
8
WALL
62
0
66
1
10
0.0
20
0.0
30
0.0
70
1
0
VERTEX
8
WALL
62
0
10
4.545
20
3.5197
30
0.0
0
VERTEX
8
WALL
62
0
10
4.5225
20
3.6172
30
0.0
0
VERTEX
8
WALL
62
0
10
4.425
20
3.5947
30
0.0
0
VERTEX
8
WALL
62
0
10
4.0651
20
5.1537
30
0.0
0
VERTEX
8
WALL
62
0
10
-0.7093
20
4.0514
30
0.0
0
VERTEX
8
WALL
62
0
10
-0.3719
20
2.5899
30
0.0
0
VERTEX
8
WALL
62
0
10
-0.4693
20
2.5674
30
0.0
0
VERTEX
8
WALL
62
0
10
-0.9755
20
4.7597
30
0.0
0
VERTEX
8
WALL
62
0
10
-0.878
20
4.7822
30
0.0
0
VERTEX
8
WALL
62
0
10
-0.7318
20
4.1488
30
0.0
0
VERTEX
8
WALL
62
0
10
0.5349
20
4.4413
30
0.0
0
VERTEX
8
WALL
62
0
10
0.3774
20
5.1233
30
0.0
0
VERTEX
8
WALL
62
0
10
0.4748
20
5.1458
30
0.0
0
VERTEX
8
WALL
62
0
10
0.6323
20
4.4638
30
0.0
0
VERTEX
8
WALL
62
0
10
4.0426
20
5.2511
30
0.0
0
VERTEX
8
WALL
62
0
10
3.9639
20
5.5921
30
0.0
0
VERTEX
8
WALL
62
0
10
4.0613
20
5.6146
30
0.0
0
VERTEX
8
WALL
62
0
10
4.0501
20
5.6633
30
0.0
0
VERTEX
8
WALL
62
0
10
4.3424
20
5.7308
30
0.0
0
VERTEX
8
WALL
62
0
10
4.8373
20
3.5872
30
0.0
0
SEQEND
8
WALL
0
POLYLINE
5
73
8
WALL
62
0
66
1
10
0.0
20
0.0
30
0.0
70
1
0
VERTEX
8
WALL
62
0
10
-0.0088
20
7.2407
30
0.0
0
VERTEX
8
WALL
62
0
10
-0.5149
20
9.4331
30
0.0
0
VERTEX
8
WALL
62
0
10
-0.6124
20
9.4106
30
0.0
0
VERTEX
8
WALL
62
0
10
-0.5336
20
9.0695
30
0.0
0
VERTEX
8
WALL
62
0
10
-1.5567
20
8.8333
30
0.0
0
VERTEX
8
WALL
62
0
10
-1.8492
20
10.1
30
0.0
0
VERTEX
8
WALL
62
0
10
-1.4594
20
10.19
30
0.0
0
VERTEX
8
WALL
62
0
10
-1.5044
20
10.3849
30
0.0
0
VERTEX
8
WALL
62
0
10
-1.407
20
10.4074
30
0.0
0
VERTEX
8
WALL
62
0
10
-1.4745
20
10.6997
30
0.0
0
VERTEX
8
WALL
62
0
10
-2.1565
20
10.5422
30
0.0
0
VERTEX
8
WALL
62
0
10
-1.1393
20
6.1363
30
0.0
0
VERTEX
8
WALL
62
0
10
-1.2485
20
6.0309
30
0.0
0
VERTEX
8
WALL
62
0
10
-1.5111
20
5.9702
30
0.0
0
VERTEX
8
WALL
62
0
10
-1.4774
20
5.8241
30
0.0
0
VERTEX
8
WALL
62
0
10
-1.2342
20
5.8802
30
0.0
0
VERTEX
8
WALL
62
0
10
-1.1779
20
5.6366
30
0.0
0
VERTEX
8
WALL
62
0
10
-1.0805
20
5.6591
30
0.0
0
VERTEX
8
WALL
62
0
10
-1.1367
20
5.9027
30
0.0
0
VERTEX
8
WALL
62
0
10
-1.1364
20
5.9028
30
0.0
0
VERTEX
8
WALL
62
0
10
-0.9269
20
6.1051
30
0.0
0
VERTEX
8
WALL
62
0
10
-1.1631
20
7.1282
30
0.0
0
VERTEX
8
WALL
62
0
10
-1.0656
20
7.1507
30
0.0
0
VERTEX
8
WALL
62
0
10
-1.0769
20
7.1994
30
0.0
0
VERTEX
8
WALL
62
0
10
-1.1743
20
7.1769
30
0.0
0
VERTEX
8
WALL
62
0
10
-1.5342
20
8.7359
30
0.0
0
VERTEX
8
WALL
62
0
10
-0.5112
20
8.9721
30
0.0
0
VERTEX
8
WALL
62
0
10
-0.1512
20
7.4131
30
0.0
0
VERTEX
8
WALL
62
0
10
-0.4923
20
7.3344
30
0.0
0
VERTEX
8
WALL
62
0
10
-0.481
20
7.2857
30
0.0
0
VERTEX
8
WALL
62
0
10
-0.14
20
7.3644
30
0.0
0
VERTEX
8
WALL
62
0
10
-0.1062
20
7.2182
30
0.0
0
SEQEND
8
WALL
0
POLYLINE
5
73
8
WALL
62
0
66
1
10
0.0
20
0.0
30
0.0
70
1
0
VERTEX
8
WALL
62
0
10
-7.3394
20
8.9864
30
0.0
0
VERTEX
8
WALL
62
0
10
-7.3956
20
9.23
30
0.0
0
VERTEX
8
WALL
62
0
10
-9.1495
20
8.8251
30
0.0
0
VERTEX
8
WALL
62
0
10
-8.7221
20
6.9738
30
0.0
0
VERTEX
8
WALL
62
0
10
-8.4298
20
7.0413
30
0.0
0
VERTEX
8
WALL
62
0
10
-8.4523
20
7.1387
30
0.0
0
VERTEX
8
WALL
62
0
10
-8.2087
20
7.195
30
0.0
0
VERTEX
8
WALL
62
0
10
-8.5124
20
8.5104
30
0.0
0
VERTEX
8
WALL
62
0
10
-7.3431
20
8.7803
30
0.0
0
VERTEX
8
WALL
62
0
10
-7.3881
20
8.9752
30
0.0
0
SEQEND
8
WALL
0
POLYLINE
5
73
8
WALL
62
0
66
1
10
0.0
20
0.0
30
0.0
70
1
0
VERTEX
8
WALL
62
0
10
-4.4073
20
-5.9365
30
0.0
0
VERTEX
8
WALL
62
0
10
-4.756
20
-4.4262
30
0.0
0
VERTEX
8
WALL
62
0
10
-4.5611
20
-4.3812
30
0.0
0
VERTEX
8
WALL
62
0
10
-4.5386
20
-4.4786
30
0.0
0
VERTEX
8
WALL
62
0
10
-4.3437
20
-4.4336
30
0.0
0
VERTEX
8
WALL
62
0
10
-4.13
20
-5.3593
30
0.0
0
VERTEX
8
WALL
62
0
10
-2.2787
20
-4.9319
30
0.0
0
VERTEX
8
WALL
62
0
10
-2.2337
20
-5.1268
30
0.0
0
VERTEX
8
WALL
62
0
10
-2.185
20
-5.1155
30
0.0
0
VERTEX
8
WALL
62
0
10
-2.1175
20
-5.4078
30
0.0
0
SEQEND
8
WALL
0
POLYLINE
5
73
8
WALL
62
0
66
1
10
0.0
20
0.0
30
0.0
70
1
0
VERTEX
8
WALL
62
0
10
-3.1825
20
5.4304
30
0.0
0
VERTEX
8
WALL
62
0
10
-3.2163
20
5.5765
30
0.0
0
VERTEX
8
WALL
62
0
10
-3.6064
20
5.4865
30
0.0
0
VERTEX
8
WALL
62
0
10
-4.6187
20
9.8712
30
0.0
0
VERTEX
8
WALL
62
0
10
-6.2751
20
9.4887
30
0.0
0
VERTEX
8
WALL
62
0
10
-6.2189
20
9.2451
30
0.0
0
VERTEX
8
WALL
62
0
10
-6.1701
20
9.2564
30
0.0
0
VERTEX
8
WALL
62
0
10
-6.1252
20
9.0615
30
0.0
0
VERTEX
8
WALL
62
0
10
-4.6636
20
9.3989
30
0.0
0
VERTEX
8
WALL
62
0
10
-3.6626
20
5.063
30
0.0
0
VERTEX
8
WALL
62
0
10
-3.3703
20
5.1305
30
0.0
0
VERTEX
8
WALL
62
0
10
-3.4265
20
5.3741
30
0.0
0
SEQEND
8
WALL
0
POLYLINE
5
73
8
WALL
62
0
66
1
10
0.0
20
0.0
30
0.0
70
1
0
VERTEX
8
WALL
62
0
10
3.4088
20
9.7745
30
0.0
0
VERTEX
8
WALL
62
0
10
2.9589
20
11.7232
30
0.0
0
VERTEX
8
WALL
62
0
10
1.3999
20
11.3633
30
0.0
0
VERTEX
8
WALL
62
0
10
1.4674
20
11.071
30
0.0
0
VERTEX
8
WALL
62
0
10
1.5161
20
11.0822
30
0.0
0
VERTEX
8
WALL
62
0
10
1.5611
20
10.8873
30
0.0
0
VERTEX
8
WALL
62
0
10
2.6816
20
11.146
30
0.0
0
VERTEX
8
WALL
62
0
10
2.9966
20
9.7819
30
0.0
0
VERTEX
8
WALL
62
0
10
3.094
20
9.8044
30
0.0
0
VERTEX
8
WALL
62
0
10
3.1165
20
9.707
30
0.0
0
SEQEND
8
WALL
0
POLYLINE
5
73
8
WALL
62
0
66
1
10
0.0
20
0.0
30
0.0
70
1
0
VERTEX
8
WALL
62
0
10
4.1287
20
6.6565
30
0.0
0
VERTEX
8
WALL
62
0
10
3.645
20
8.7514
30
0.0
0
VERTEX
8
WALL
62
0
10
3.3527
20
8.6839
30
0.0
0
VERTEX
8
WALL
62
0
10
3.364
20
8.6352
30
0.0
0
VERTEX
8
WALL
62
0
10
3.2665
20
8.6127
30
0.0
0
VERTEX
8
WALL
62
0
10
3.6152
20
7.1024
30
0.0
0
VERTEX
8
WALL
62
0
10
0.2049
20
6.3151
30
0.0
0
VERTEX
8
WALL
62
0
10
0.1824
20
6.4125
30
0.0
0
VERTEX
8
WALL
62
0
10
0.085
20
6.39
30
0.0
0
VERTEX
8
WALL
62
0
10
0.1862
20
5.9516
30
0.0
0
VERTEX
8
WALL
62
0
10
0.2836
20
5.974
30
0.0
0
VERTEX
8
WALL
62
0
10
0.2274
20
6.2176
30
0.0
0
VERTEX
8
WALL
62
0
10
3.7351
20
7.0275
30
0.0
0
VERTEX
8
WALL
62
0
10
3.8364
20
6.589
30
0.0
0
SEQEND
8
WALL
0
POLYLINE
5
73
8
WALL
62
0
66
1
10
0.0
20
0.0
30
0.0
70
1
0
VERTEX
8
WALL
62
0
10
0.3469
20
10.8123
30
0.0
0
VERTEX
8
WALL
62
0
10
0.2794
20
11.1046
30
0.0
0
VERTEX
8
WALL
62
0
10
-0.9873
20
10.8122
30
0.0
0
VERTEX
8
WALL
62
0
10
-0.9198
20
10.5198
30
0.0
0
VERTEX
8
WALL
62
0
10
-0.8711
20
10.5311
30
0.0
0
VERTEX
8
WALL
62
0
10
-0.7923
20
10.1901
30
0.0
0
VERTEX
8
WALL
62
0
10
-0.6949
20
10.2126
30
0.0
0
VERTEX
8
WALL
62
0
10
-0.7286
20
10.3587
30
0.0
0
VERTEX
8
WALL
62
0
10
0.3432
20
10.6062
30
0.0
0
VERTEX
8
WALL
62
0
10
0.2982
20
10.801
30
0.0
0
SEQEND
8
WALL
0
POLYLINE
5
73
8
WALL
62
0
66
1
10
0.0
20
0.0
30
0.0
70
1
0
VERTEX
8
WALL
62
0
10
-2.6954
20
2.2074
30
0.0
0
VERTEX
8
WALL
62
0
10
-3.1678
20
4.2535
30
0.0
0
VERTEX
8
WALL
62
0
10
-3.4601
20
4.1861
30
0.0
0
VERTEX
8
WALL
62
0
10
-3.4489
20
4.1373
30
0.0
0
VERTEX
8
WALL
62
0
10
-4.0822
20
3.9911
30
0.0
0
VERTEX
8
WALL
62
0
10
-4.0147
20
3.6988
30
0.0
0
VERTEX
8
WALL
62
0
10
-3.4788
20
3.8225
30
0.0
0
VERTEX
8
WALL
62
0
10
-3.3551
20
3.2866
30
0.0
0
VERTEX
8
WALL
62
0
10
-3.0628
20
3.3541
30
0.0
0
VERTEX
8
WALL
62
0
10
-2.7928
20
2.1849
30
0.0
0
SEQEND
8
WALL
0
POLYLINE
5
73
8
WALL
62
0
66
1
10
0.0
20
0.0
30
0.0
70
1
0
VERTEX
8
WALL
62
0
10
-2.9087
20
-0.8695
30
0.0
0
VERTEX
8
WALL
62
0
10
-2.9425
20
-0.7233
30
0.0
0
VERTEX
8
WALL
62
0
10
-2.163
20
-0.5434
30
0.0
0
VERTEX
8
WALL
62
0
10
-2.5904
20
1.3079
30
0.0
0
VERTEX
8
WALL
62
0
10
-2.4929
20
1.3304
30
0.0
0
VERTEX
8
WALL
62
0
10
-2.0655
20
-0.5209
30
0.0
0
VERTEX
8
WALL
62
0
10
-1.8707
20
-0.4759
30
0.0
0
VERTEX
8
WALL
62
0
10
-1.8369
20
-0.622
30
0.0
0
SEQEND
8
WALL
0
POLYLINE
5
73
8
WALL
62
0
66
1
10
0.0
20
0.0
30
0.0
70
1
0
VERTEX
8
WALL
62
0
10
-5.5766
20
-6.2064
30
0.0
0
VERTEX
8
WALL
62
0
10
-5.6553
20
-5.8654
30
0.0
0
VERTEX
8
WALL
62
0
10
-5.9963
20
-5.9441
30
0.0
0
VERTEX
8
WALL
62
0
10
-5.9176
20
-6.2851
30
0.0
0
SEQEND
8
WALL
0
ENDSEC
0
EOF
